Patient4_TMGait_0pt4_03_left_23_EMG.mot
version=1
nRows=13
nColumns=33
inDegrees=no
endheader
time	1LAddLong	2LGlutMax	3LGlutMed	4LIliopsoas	5LSemiMemb	6LBicFemLong	7LRecFem	8LVastMed	9LVastLat	10LGasMed	11LTibAnt	12lTibPost	13LPeroneusLong	14LSol	15LExtDigLong	16LFlexDigLong	17RAddLong	18RGlutMax	19RGlutMed	20RIliopsoas	21RSemiMemb	22RBicFemLong	23RRecFem	24RVastMed	25RVastLat	26RGasMed	27RTibAnt	28RTibPost	29RPeroneusLong	30RSol	31RExtDigLong	32RFlexDigLong
31.548	0.017548	0.033875	0.028687	0.005798	0.036011	-0.015564	-0.002899	0.012207	0.14648	-0.003052	-0.002136	0.001221	0.032196	-0.037842	0.093384	0.001984	-0.007935	-0.34988	-0.24231	0.10696	0.015717	0.005341	-0.2211	0.097961	0.19974	0.005493	-0.11475	0.00351	-0.8165	0.20264	0.008392	-0.007019
31.549	0.018616	0.017242	0.068817	0.006104	0.007935	0.018158	-0.00412	0.00885	0.14862	0.000153	0.001984	-0.008392	0.028076	-0.030518	0.058136	0.012054	-0.020447	-0.37552	0.34241	0.059509	0.008087	0.046692	-0.32669	0	0.2565	0.018005	-0.31464	-0.000153	-0.4071	0.080566	-0.002899	-0.004883
31.55	0.009766	0.017395	0.076447	0.004578	-0.013275	0.021057	0.011902	0.001221	0.14694	-0.019226	0.031738	-0.004425	-0.005798	-0.036774	-0.014496	0.001068	-0.014648	-0.38101	0.11795	-0.003204	-0.003662	0.009155	-0.11231	0.11154	0.15991	0.015869	-0.18646	0.002441	0.49652	0.10376	-0.002747	-0.002899
31.551	0.007629	0.013428	0.033417	0.004883	-0.007477	0.038605	0.019379	0.004272	0.14374	-0.041962	0.026245	-0.000916	0.023346	-0.032959	-0.097961	0.00351	-0.005493	-0.47836	0.27237	0.00885	-0.037079	-0.04776	-0.1088	0.039825	0.049286	0.021057	-0.075378	0.003967	0.45303	0.07843	-0.002899	-0.00351
31.552	-0.001984	0.048981	0.036469	0.005951	0.001221	0.046692	0.028992	0.007477	0.13825	-0.021667	-0.034027	0	0.01709	-0.03891	-0.12436	-0.004578	0.010681	-0.38773	0.10132	-0.026855	-0.017548	-0.021057	-0.11658	-0.070496	0.011597	0.006714	-0.023651	0.003204	-0.06958	0.10178	-0.001068	-0.005188
31.553	-0.009766	0.057526	0.039368	0.019379	-0.022583	0.036316	0.017548	0.006104	0.13351	0.005341	-0.075073	-0.001068	0.015106	-0.075836	-0.14206	-0.014191	0.004272	-0.38559	0.12421	-0.044556	0.005035	-0.009003	-0.09201	-0.12878	0.007629	-0.012054	0.21362	0.003815	-0.18951	0.16357	-0.005798	-0.009308
31.554	-0.013123	0.049744	0.022736	0.006409	-0.046082	0.008545	0.011292	0.008545	0.12421	0.002289	-0.037384	0.005493	0.006104	-0.075684	-0.068359	-0.006409	0.008087	-0.37293	-0.055695	-0.030518	0.001831	-0.001526	-0.1384	-0.15457	-0.005493	-0.017548	0.14236	0.000458	-0.079498	0.13367	-0.001831	-0.012512
31.555	-0.010071	0.048523	0.016479	0.005035	-0.038452	0.014496	-0.002899	0.005951	0.13534	-0.016174	0.068665	-0.003357	0.052795	-0.062714	-0.00946	0.01297	0.007935	-0.35477	-0.22232	-0.010681	-0.061646	0.022888	-0.018616	-0.053406	-0.024872	-0.007935	0.072327	0.004272	-0.050354	0.11444	-0.003052	-0.014496
31.556	0.016327	0.06073	0.014191	0.001221	0.034943	-0.03006	0.014038	0.005035	0.12054	-0.010986	0.088196	-0.005493	0.045471	-0.044556	0.010681	0.002289	0.001068	-0.2565	0.11826	-0.042267	-0.063477	0.070496	-0.015717	-0.027313	-0.013885	0.00412	0.066223	0.001373	-0.067596	0.1062	-0.003052	-0.003662
31.557	0.018311	0.005188	-0.007324	-0.000916	0.070648	-0.029449	0.030518	0.002594	0.10544	-0.009918	0.025787	-0.007782	0.046692	-0.040436	-0.000916	-0.00473	0.002289	-0.34119	0.22598	-0.052032	0.056915	0.032349	0.002289	-0.032654	0.018616	0.015564	0.11551	0.002594	0.007782	0.087891	-0.002289	-0.007782
31.558	0.014954	-0.007019	-0.027466	0.010986	0.011902	-0.027924	0.029449	0.001678	0.10895	-0.021057	0.006866	0.003967	0.039215	-0.025787	-0.031891	0.001678	0.005341	-0.40466	0.14572	0.027008	0.074005	0.014191	0.023499	0.024261	0.12451	0.012054	0.049286	-0.00061	0.26627	0.015564	-0.001678	-0.012512
31.559	0.002441	0.004272	-0.068207	0.003204	-0.013885	0.005798	0.030212	-0.001221	0.10605	-0.014801	0.008698	-0.006561	0.046539	-0.030365	-0.018616	0.015411	-0.004578	-0.37231	0.092163	0.050049	0.052338	0.028839	0.035706	0.1474	0.14343	0.005951	-0.055542	0.005493	0.041046	0.001068	-0.003204	-0.007019
31.56	0.015717	-0.022736	-0.10269	0.005188	0.001984	0.022583	0.022736	-0.000305	0.10346	-0.018158	0.024414	-0.002289	0.035095	-0.045776	0.059814	0.005798	-0.015259	-0.42496	-0.068512	0.069122	-0.046844	0.055237	0.019379	0.018158	-0.01236	-0.005188	0.042725	-0.003815	-0.51178	-0.028687	-0.003052	-0.003815
